<?xml version="1.0" encoding="UTF-8"?>
<svg xmlns="http://www.w3.org/2000/svg" xmlns:xlink="http://www.w3.org/1999/xlink" width="500px" height="318px" viewBox="0 0 499 318" version="1.1">
<g id="surface1">
<path style=" stroke:none;fill-rule:nonzero;fill:rgb(3.529412%,25.882354%,43.921569%);fill-opacity:1;" d="M 0 317.660156 L 0 272.300781 L 25.425781 272.300781 C 30.238281 272.265625 33.769531 273.851562 35.78125 276.667969 C 37.796875 279.464844 38.292969 283.003906 38.304688 286.746094 C 38.292969 288.640625 38.335938 292.148438 36.664062 295.410156 C 35.027344 298.71875 31.277344 301.496094 25.175781 301.421875 L 8.898438 301.421875 L 8.898438 317.660156 Z M 8.898438 293.601562 L 20.945312 293.601562 C 23.488281 293.609375 25.484375 293.570312 26.714844 293.226562 C 27.949219 292.832031 28.355469 292.53125 28.878906 291.34375 C 29.195312 290.535156 29.410156 289.230469 29.402344 287.363281 C 29.445312 283.433594 28.890625 281.597656 28.304688 281.085938 C 27.835938 280.507812 26.355469 280.089844 23.140625 280.121094 L 8.898438 280.121094 Z M 8.898438 293.601562 "/>
<path style=" stroke:none;fill-rule:nonzero;fill:rgb(3.529412%,25.882354%,43.921569%);fill-opacity:1;" d="M 84.667969 271.96875 C 90.585938 272.035156 94.839844 272.886719 97.765625 275.59375 C 100.671875 278.34375 101.546875 282.429688 101.546875 287.804688 L 101.546875 302.660156 C 101.554688 307.773438 100.523438 311.789062 97.574219 314.453125 C 94.628906 317.085938 90.375 317.988281 84.652344 318 L 78.40625 318 C 72.679688 317.988281 68.429688 317.085938 65.476562 314.453125 C 62.535156 311.789062 61.507812 307.773438 61.515625 302.660156 L 61.515625 287.804688 C 61.515625 282.429688 62.386719 278.34375 65.289062 275.59375 C 68.214844 272.886719 72.46875 272.035156 78.40625 271.964844 L 84.652344 271.964844 M 78.40625 279.785156 C 74.597656 279.757812 72.648438 280.300781 71.847656 281.144531 C 70.988281 281.914062 70.390625 283.84375 70.40625 287.804688 L 70.40625 302.660156 C 70.410156 306.644531 71.164062 308.269531 72.09375 308.996094 C 73.007812 309.796875 75.082031 310.171875 78.40625 310.171875 L 84.632812 310.171875 C 87.980469 310.171875 90.050781 309.796875 90.96875 308.996094 C 91.894531 308.269531 92.648438 306.644531 92.648438 302.660156 L 92.648438 287.804688 C 92.671875 283.84375 92.0625 281.914062 91.210938 281.144531 C 90.414062 280.300781 88.457031 279.757812 84.652344 279.785156 L 78.40625 279.785156 "/>
<path style=" stroke:none;fill-rule:nonzero;fill:rgb(3.529412%,25.882354%,43.921569%);fill-opacity:1;" d="M 129.523438 317.660156 L 129.523438 272.300781 L 138.429688 272.300781 L 138.429688 309.84375 L 162.03125 309.84375 L 162.03125 317.660156 Z M 129.523438 317.660156 "/>
<path style=" stroke:none;fill-rule:nonzero;fill:rgb(3.529412%,25.882354%,43.921569%);fill-opacity:1;" d="M 195.878906 317.65625 L 195.878906 299.007812 L 177.203125 272.300781 L 187.777344 272.300781 L 200.539062 290.472656 L 213.304688 272.300781 L 224.0625 272.300781 L 204.777344 299.019531 L 204.777344 317.65625 Z M 195.878906 317.65625 "/>
<path style=" stroke:none;fill-rule:nonzero;fill:rgb(3.529412%,25.882354%,43.921569%);fill-opacity:1;" d="M 258.265625 317.65625 L 258.265625 280.113281 L 243.257812 280.113281 L 243.257812 272.300781 L 282.175781 272.300781 L 282.175781 280.121094 L 267.167969 280.113281 L 267.167969 317.65625 Z M 258.265625 317.65625 "/>
<path style=" stroke:none;fill-rule:nonzero;fill:rgb(3.529412%,25.882354%,43.921569%);fill-opacity:1;" d="M 307.039062 317.660156 L 307.039062 272.300781 L 340.464844 272.300781 L 340.464844 280.121094 L 315.941406 280.121094 L 315.941406 290.652344 L 339.421875 290.652344 L 339.421875 298.195312 L 315.941406 298.195312 L 315.941406 309.84375 L 340.464844 309.84375 L 340.464844 317.660156 Z M 307.039062 317.660156 "/>
<path style=" stroke:none;fill-rule:nonzero;fill:rgb(3.529412%,25.882354%,43.921569%);fill-opacity:1;" d="M 383.054688 317.996094 L 383.027344 317.996094 C 378.476562 317.996094 374.59375 316.6875 371.875 314.042969 C 369.148438 311.410156 367.75 307.566406 367.761719 303.042969 L 367.761719 286.910156 C 367.683594 280.648438 370.125 276.382812 374.191406 274.320312 C 378.175781 272.246094 383.226562 271.988281 388.921875 271.96875 L 393.246094 271.96875 C 398.292969 271.96875 402.019531 272.933594 404.515625 275.425781 C 406.980469 277.949219 407.734375 281.511719 407.734375 285.804688 L 407.734375 288.960938 L 398.839844 288.960938 L 398.839844 285.96875 C 398.859375 283.140625 398.4375 281.644531 397.792969 281.023438 C 397.226562 280.363281 395.761719 279.777344 392.503906 279.789062 L 389.539062 279.789062 C 385.511719 279.78125 382.53125 279.964844 380.578125 280.496094 C 378.613281 281.066406 377.847656 281.703125 377.269531 282.90625 C 376.886719 283.742188 376.652344 284.992188 376.660156 286.746094 L 376.660156 298.207031 C 376.652344 301.746094 376.738281 304.492188 377.203125 306.304688 C 377.714844 308.136719 378.269531 308.875 379.621094 309.503906 C 380.5625 309.914062 381.992188 310.175781 384.039062 310.171875 L 390.285156 310.171875 C 393.371094 310.183594 395.589844 310.011719 396.941406 309.597656 C 398.292969 309.148438 398.652344 308.789062 399.050781 307.921875 C 399.296875 307.316406 399.457031 306.351562 399.457031 304.992188 L 399.457031 299.832031 L 408.355469 299.832031 L 408.355469 305.554688 C 408.4375 310.71875 406.285156 314.375 402.804688 316.070312 C 399.390625 317.78125 395.167969 317.980469 390.46875 317.996094 L 383.054688 317.996094 "/>
<path style=" stroke:none;fill-rule:nonzero;fill:rgb(3.529412%,25.882354%,43.921569%);fill-opacity:1;" d="M 467.46875 317.660156 L 467.464844 298.472656 L 443.988281 298.472656 L 443.988281 317.660156 L 435.089844 317.660156 L 435.089844 272.300781 L 443.992188 272.300781 L 443.988281 290.652344 L 467.464844 290.652344 L 467.464844 272.300781 L 476.363281 272.300781 L 476.363281 317.660156 Z M 467.46875 317.660156 "/>
<path style=" stroke:none;fill-rule:nonzero;fill:rgb(3.529412%,25.882354%,43.921569%);fill-opacity:1;" d="M 492.9375 266.164062 C 496.179688 266.164062 499.074219 268.503906 499.074219 272.144531 C 499.074219 275.78125 496.179688 278.125 492.9375 278.125 C 489.691406 278.125 486.796875 275.78125 486.796875 272.144531 C 486.796875 268.503906 489.691406 266.164062 492.9375 266.164062 M 492.9375 276.847656 C 495.414062 276.847656 497.441406 274.863281 497.441406 272.144531 C 497.441406 269.410156 495.414062 267.441406 492.9375 267.441406 C 490.429688 267.441406 488.425781 269.410156 488.425781 272.144531 C 488.425781 274.863281 490.429688 276.847656 492.9375 276.847656 M 496.066406 273.136719 C 495.8125 274.738281 494.585938 275.667969 493.15625 275.667969 C 491.085938 275.667969 489.71875 274.117188 489.71875 272.117188 C 489.71875 270.050781 491.003906 268.53125 493.128906 268.53125 C 494.597656 268.53125 495.800781 269.398438 496.023438 271.011719 L 494.773438 271.011719 C 494.613281 270.257812 493.960938 269.8125 493.128906 269.8125 C 491.914062 269.8125 491.261719 270.769531 491.261719 272.085938 C 491.261719 273.328125 491.992188 274.386719 493.15625 274.386719 C 494.039062 274.386719 494.679688 273.90625 494.773438 273.136719 Z M 496.066406 273.136719 "/>
<path style=" stroke:none;fill-rule:nonzero;fill:rgb(0%,67.843139%,93.725491%);fill-opacity:1;" d="M 238.019531 0 C 183.078125 0.0117188 137.296875 39.105469 126.90625 91.011719 L 173.28125 91.011719 C 176.695312 81.105469 182.308594 72.238281 189.589844 64.933594 C 202.058594 52.496094 219.039062 44.875 238.019531 44.863281 C 257.003906 44.875 273.984375 52.496094 286.445312 64.933594 C 298.878906 77.402344 306.5 94.398438 306.511719 113.386719 C 306.5 132.382812 298.878906 149.371094 286.445312 161.847656 C 273.984375 174.28125 257.003906 181.90625 238.019531 181.914062 C 219.039062 181.90625 202.058594 174.28125 189.589844 161.847656 C 182.375 154.605469 176.796875 145.832031 173.371094 136.042969 L 127.007812 136.03125 L 127.007812 193.210938 C 127.007812 241.945312 169.15625 239.070312 169.15625 239.070312 L 169.183594 203.453125 C 188.261719 218.082031 212.121094 226.777344 238.019531 226.78125 C 300.617188 226.765625 351.339844 176.019531 351.351562 113.386719 C 351.339844 50.753906 300.617188 0.0117188 238.019531 0 "/>
<path style=" stroke:none;fill-rule:nonzero;fill:rgb(100%,100%,100%);fill-opacity:1;" d="M 383.699219 247.410156 C 383.820312 247.410156 383.925781 247.496094 383.925781 247.632812 C 383.925781 247.765625 383.820312 247.851562 383.699219 247.851562 C 383.578125 247.851562 383.472656 247.765625 383.472656 247.632812 C 383.472656 247.496094 383.578125 247.410156 383.699219 247.410156 M 383.699219 247.804688 C 383.789062 247.804688 383.863281 247.730469 383.863281 247.632812 C 383.863281 247.53125 383.789062 247.457031 383.699219 247.457031 C 383.605469 247.457031 383.53125 247.53125 383.53125 247.632812 C 383.53125 247.730469 383.605469 247.804688 383.699219 247.804688 M 383.8125 247.667969 C 383.804688 247.726562 383.757812 247.761719 383.707031 247.761719 C 383.628906 247.761719 383.582031 247.703125 383.582031 247.628906 C 383.582031 247.554688 383.628906 247.5 383.707031 247.5 C 383.761719 247.5 383.804688 247.53125 383.8125 247.589844 L 383.765625 247.589844 L 383.707031 247.546875 C 383.660156 247.546875 383.636719 247.582031 383.636719 247.628906 C 383.636719 247.675781 383.664062 247.714844 383.707031 247.714844 L 383.765625 247.667969 Z M 383.8125 247.667969 "/>
<path style=" stroke:none;fill-rule:nonzero;fill:rgb(100%,100%,100%);fill-opacity:1;" d="M 373.90625 248.742188 L 373.90625 247.855469 L 374.40625 247.855469 C 374.5 247.851562 374.566406 247.882812 374.609375 247.941406 C 374.648438 247.996094 374.65625 248.0625 374.65625 248.136719 C 374.65625 248.175781 374.65625 248.242188 374.625 248.308594 C 374.59375 248.371094 374.519531 248.425781 374.398438 248.425781 L 374.082031 248.425781 L 374.082031 248.742188 Z M 374.082031 248.273438 L 374.316406 248.273438 C 374.367188 248.273438 374.40625 248.269531 374.429688 248.261719 L 374.472656 248.226562 C 374.476562 248.210938 374.484375 248.1875 374.484375 248.148438 C 374.484375 248.074219 374.472656 248.035156 374.460938 248.027344 C 374.453125 248.015625 374.421875 248.007812 374.359375 248.007812 L 374.082031 248.007812 Z M 374.082031 248.273438 "/>
<path style=" stroke:none;fill-rule:nonzero;fill:rgb(100%,100%,100%);fill-opacity:1;" d="M 375.566406 247.847656 C 375.683594 247.847656 375.765625 247.867188 375.824219 247.917969 C 375.878906 247.972656 375.898438 248.054688 375.898438 248.15625 L 375.898438 248.449219 C 375.898438 248.550781 375.878906 248.628906 375.820312 248.679688 C 375.761719 248.734375 375.679688 248.75 375.566406 248.75 L 375.445312 248.75 C 375.332031 248.75 375.25 248.734375 375.191406 248.679688 C 375.132812 248.628906 375.113281 248.550781 375.113281 248.449219 L 375.113281 248.15625 C 375.113281 248.054688 375.128906 247.972656 375.1875 247.917969 C 375.246094 247.867188 375.328125 247.847656 375.445312 247.847656 L 375.566406 247.847656 M 375.445312 248 C 375.371094 248 375.332031 248.011719 375.316406 248.027344 C 375.296875 248.042969 375.285156 248.082031 375.285156 248.15625 L 375.285156 248.449219 C 375.285156 248.527344 375.300781 248.558594 375.320312 248.574219 C 375.339844 248.589844 375.378906 248.597656 375.445312 248.597656 L 375.566406 248.597656 C 375.632812 248.597656 375.671875 248.589844 375.691406 248.574219 C 375.710938 248.558594 375.722656 248.527344 375.722656 248.449219 L 375.722656 248.15625 C 375.722656 248.082031 375.710938 248.042969 375.695312 248.027344 C 375.679688 248.011719 375.640625 248 375.566406 248 L 375.445312 248 "/>
<path style=" stroke:none;fill-rule:nonzero;fill:rgb(100%,100%,100%);fill-opacity:1;" d="M 376.445312 248.742188 L 376.445312 247.855469 L 376.621094 247.855469 L 376.621094 248.589844 L 377.085938 248.589844 L 377.085938 248.742188 Z M 376.445312 248.742188 "/>
<path style=" stroke:none;fill-rule:nonzero;fill:rgb(100%,100%,100%);fill-opacity:1;" d="M 377.75 248.742188 L 377.75 248.375 L 377.382812 247.855469 L 377.589844 247.855469 L 377.839844 248.210938 L 378.089844 247.855469 L 378.300781 247.855469 L 377.921875 248.378906 L 377.921875 248.742188 Z M 377.75 248.742188 "/>
<path style=" stroke:none;fill-rule:nonzero;fill:rgb(100%,100%,100%);fill-opacity:1;" d="M 378.972656 248.742188 L 378.972656 248.007812 L 378.675781 248.007812 L 378.675781 247.855469 L 379.441406 247.855469 L 379.441406 248.007812 L 379.144531 248.007812 L 379.144531 248.742188 Z M 378.972656 248.742188 "/>
<path style=" stroke:none;fill-rule:nonzero;fill:rgb(100%,100%,100%);fill-opacity:1;" d="M 379.929688 248.742188 L 379.929688 247.855469 L 380.582031 247.855469 L 380.582031 248.007812 L 380.101562 248.007812 L 380.101562 248.214844 L 380.5625 248.214844 L 380.5625 248.359375 L 380.101562 248.359375 L 380.101562 248.589844 L 380.582031 248.589844 L 380.582031 248.742188 Z M 379.929688 248.742188 "/>
<path style=" stroke:none;fill-rule:nonzero;fill:rgb(100%,100%,100%);fill-opacity:1;" d="M 381.417969 248.75 C 381.328125 248.75 381.253906 248.722656 381.199219 248.671875 C 381.148438 248.621094 381.117188 248.546875 381.117188 248.457031 L 381.117188 248.140625 C 381.117188 248.015625 381.164062 247.933594 381.246094 247.894531 C 381.324219 247.851562 381.421875 247.847656 381.535156 247.847656 L 381.621094 247.847656 C 381.71875 247.847656 381.792969 247.867188 381.839844 247.914062 C 381.890625 247.964844 381.902344 248.035156 381.902344 248.117188 L 381.902344 248.179688 L 381.730469 248.179688 L 381.730469 248.121094 C 381.730469 248.066406 381.71875 248.039062 381.707031 248.023438 C 381.695312 248.011719 381.667969 248 381.605469 248 L 381.546875 248 C 381.46875 248 381.410156 248.003906 381.371094 248.015625 C 381.332031 248.027344 381.316406 248.039062 381.304688 248.0625 L 381.292969 248.136719 L 381.292969 248.363281 C 381.292969 248.429688 381.296875 248.484375 381.304688 248.519531 L 381.351562 248.585938 C 381.371094 248.589844 381.398438 248.597656 381.4375 248.597656 L 381.5625 248.597656 C 381.621094 248.597656 381.664062 248.59375 381.691406 248.585938 L 381.734375 248.554688 L 381.742188 248.496094 L 381.742188 248.394531 L 381.914062 248.394531 L 381.914062 248.507812 C 381.917969 248.605469 381.875 248.679688 381.808594 248.710938 C 381.738281 248.746094 381.65625 248.75 381.5625 248.75 L 381.417969 248.75 "/>
<path style=" stroke:none;fill-rule:nonzero;fill:rgb(100%,100%,100%);fill-opacity:1;" d="M 383.074219 248.742188 L 383.074219 248.367188 L 382.613281 248.367188 L 382.613281 248.742188 L 382.4375 248.742188 L 382.4375 247.855469 L 382.613281 247.855469 L 382.613281 248.214844 L 383.074219 248.214844 L 383.074219 247.855469 L 383.25 247.855469 L 383.25 248.742188 Z M 383.074219 248.742188 "/>
</g>
</svg>
