<?xml version="1.0" encoding="UTF-8"?>
<svg xmlns="http://www.w3.org/2000/svg" xmlns:xlink="http://www.w3.org/1999/xlink" width="200px" height="127px" viewBox="0 0 199 127" version="1.1">
<g id="surface1">
<path style=" stroke:none;fill-rule:nonzero;fill:rgb(3.529412%,25.882354%,43.921569%);fill-opacity:1;" d="M 0.199219 126.863281 L 0.199219 108.75 L 10.320312 108.75 C 12.234375 108.734375 13.640625 109.367188 14.441406 110.492188 C 15.242188 111.609375 15.441406 113.023438 15.445312 114.519531 C 15.441406 115.273438 15.457031 116.675781 14.792969 117.976562 C 14.140625 119.300781 12.648438 120.410156 10.21875 120.378906 L 3.742188 120.378906 L 3.742188 126.863281 Z M 3.742188 117.257812 L 8.535156 117.257812 C 9.546875 117.257812 10.339844 117.242188 10.832031 117.105469 C 11.324219 116.949219 11.484375 116.828125 11.691406 116.355469 C 11.820312 116.03125 11.902344 115.511719 11.902344 114.765625 C 11.917969 113.195312 11.699219 112.460938 11.464844 112.257812 C 11.277344 112.027344 10.6875 111.859375 9.410156 111.871094 L 3.742188 111.871094 Z M 3.742188 117.257812 "/>
<path style=" stroke:none;fill-rule:nonzero;fill:rgb(3.529412%,25.882354%,43.921569%);fill-opacity:1;" d="M 33.898438 108.617188 C 36.253906 108.644531 37.945312 108.984375 39.109375 110.0625 C 40.265625 111.164062 40.613281 112.792969 40.613281 114.941406 L 40.613281 120.875 C 40.617188 122.914062 40.207031 124.519531 39.035156 125.582031 C 37.859375 126.636719 36.167969 126.996094 33.890625 127 L 31.40625 127 C 29.125 126.996094 27.433594 126.636719 26.257812 125.582031 C 25.089844 124.519531 24.679688 122.914062 24.683594 120.875 L 24.683594 114.941406 C 24.683594 112.792969 25.027344 111.164062 26.183594 110.0625 C 27.347656 108.984375 29.042969 108.644531 31.40625 108.613281 L 33.890625 108.613281 M 31.40625 111.738281 C 29.890625 111.726562 29.113281 111.945312 28.792969 112.28125 C 28.453125 112.589844 28.214844 113.359375 28.21875 114.941406 L 28.21875 120.875 C 28.222656 122.464844 28.523438 123.113281 28.890625 123.402344 C 29.257812 123.722656 30.082031 123.875 31.40625 123.875 L 33.882812 123.875 C 35.214844 123.875 36.039062 123.722656 36.40625 123.402344 C 36.773438 123.113281 37.074219 122.464844 37.074219 120.875 L 37.074219 114.941406 C 37.082031 113.359375 36.839844 112.589844 36.5 112.28125 C 36.183594 111.945312 35.40625 111.726562 33.890625 111.738281 L 31.40625 111.738281 "/>
<path style=" stroke:none;fill-rule:nonzero;fill:rgb(3.529412%,25.882354%,43.921569%);fill-opacity:1;" d="M 51.75 126.863281 L 51.75 108.75 L 55.292969 108.75 L 55.292969 123.742188 L 64.6875 123.742188 L 64.6875 126.863281 Z M 51.75 126.863281 "/>
<path style=" stroke:none;fill-rule:nonzero;fill:rgb(3.529412%,25.882354%,43.921569%);fill-opacity:1;" d="M 78.160156 126.863281 L 78.160156 119.414062 L 70.726562 108.75 L 74.933594 108.75 L 80.011719 116.007812 L 85.09375 108.75 L 89.375 108.75 L 81.699219 119.417969 L 81.699219 126.863281 Z M 78.160156 126.863281 "/>
<path style=" stroke:none;fill-rule:nonzero;fill:rgb(3.529412%,25.882354%,43.921569%);fill-opacity:1;" d="M 102.988281 126.863281 L 102.988281 111.867188 L 97.015625 111.867188 L 97.015625 108.75 L 112.503906 108.75 L 112.503906 111.871094 L 106.53125 111.867188 L 106.53125 126.863281 Z M 102.988281 126.863281 "/>
<path style=" stroke:none;fill-rule:nonzero;fill:rgb(3.529412%,25.882354%,43.921569%);fill-opacity:1;" d="M 122.402344 126.863281 L 122.402344 108.75 L 135.703125 108.75 L 135.703125 111.871094 L 125.945312 111.871094 L 125.945312 116.078125 L 135.289062 116.078125 L 135.289062 119.089844 L 125.945312 119.089844 L 125.945312 123.742188 L 135.703125 123.742188 L 135.703125 126.863281 Z M 122.402344 126.863281 "/>
<path style=" stroke:none;fill-rule:nonzero;fill:rgb(3.529412%,25.882354%,43.921569%);fill-opacity:1;" d="M 152.65625 127 L 152.644531 127 C 150.832031 127 149.289062 126.476562 148.207031 125.417969 C 147.121094 124.367188 146.5625 122.832031 146.566406 121.027344 L 146.566406 114.582031 C 146.535156 112.082031 147.507812 110.378906 149.128906 109.554688 C 150.714844 108.726562 152.722656 108.625 154.988281 108.617188 L 156.710938 108.617188 C 158.71875 108.617188 160.203125 109 161.195312 109.996094 C 162.175781 111.003906 162.476562 112.425781 162.476562 114.140625 L 162.476562 115.402344 L 158.9375 115.402344 L 158.9375 114.207031 C 158.945312 113.078125 158.777344 112.480469 158.519531 112.234375 C 158.296875 111.96875 157.710938 111.734375 156.414062 111.738281 L 155.234375 111.738281 C 153.632812 111.738281 152.445312 111.808594 151.667969 112.023438 C 150.886719 112.25 150.582031 112.503906 150.351562 112.984375 C 150.199219 113.320312 150.105469 113.816406 150.109375 114.519531 L 150.109375 119.09375 C 150.105469 120.507812 150.140625 121.605469 150.324219 122.328125 C 150.53125 123.0625 150.75 123.355469 151.289062 123.605469 C 151.664062 123.769531 152.230469 123.875 153.046875 123.875 L 155.53125 123.875 C 156.761719 123.878906 157.644531 123.808594 158.183594 123.644531 C 158.71875 123.464844 158.863281 123.320312 159.019531 122.976562 C 159.121094 122.734375 159.183594 122.347656 159.183594 121.804688 L 159.183594 119.746094 L 162.722656 119.746094 L 162.722656 122.03125 C 162.757812 124.09375 161.902344 125.550781 160.515625 126.230469 C 159.15625 126.914062 157.476562 126.992188 155.605469 127 L 152.65625 127 "/>
<path style=" stroke:none;fill-rule:nonzero;fill:rgb(3.529412%,25.882354%,43.921569%);fill-opacity:1;" d="M 186.25 126.863281 L 186.25 119.203125 L 176.90625 119.203125 L 176.90625 126.863281 L 173.363281 126.863281 L 173.363281 108.75 L 176.90625 108.75 L 176.90625 116.078125 L 186.25 116.078125 L 186.25 108.75 L 189.792969 108.75 L 189.792969 126.863281 Z M 186.25 126.863281 "/>
<path style=" stroke:none;fill-rule:nonzero;fill:rgb(3.529412%,25.882354%,43.921569%);fill-opacity:1;" d="M 196.386719 106.296875 C 197.679688 106.296875 198.832031 107.234375 198.832031 108.6875 C 198.832031 110.140625 197.679688 111.074219 196.386719 111.074219 C 195.097656 111.074219 193.945312 110.140625 193.945312 108.6875 C 193.945312 107.234375 195.097656 106.296875 196.386719 106.296875 M 196.386719 110.566406 C 197.375 110.566406 198.179688 109.773438 198.179688 108.6875 C 198.179688 107.59375 197.375 106.808594 196.386719 106.808594 C 195.390625 106.808594 194.59375 107.59375 194.59375 108.6875 C 194.59375 109.773438 195.390625 110.566406 196.386719 110.566406 M 197.632812 109.082031 C 197.53125 109.722656 197.042969 110.09375 196.476562 110.09375 C 195.652344 110.09375 195.105469 109.472656 195.105469 108.675781 C 195.105469 107.851562 195.617188 107.242188 196.464844 107.242188 C 197.050781 107.242188 197.527344 107.589844 197.617188 108.234375 L 197.117188 108.234375 C 197.054688 107.933594 196.796875 107.753906 196.464844 107.753906 C 195.980469 107.753906 195.722656 108.136719 195.722656 108.664062 C 195.722656 109.160156 196.011719 109.582031 196.476562 109.582031 C 196.828125 109.582031 197.082031 109.390625 197.117188 109.082031 Z M 197.632812 109.082031 "/>
<path style=" stroke:none;fill-rule:nonzero;fill:rgb(0%,67.843139%,93.725491%);fill-opacity:1;" d="M 94.929688 0 C 73.0625 0.00390625 54.84375 15.617188 50.707031 36.347656 L 69.164062 36.347656 C 70.523438 32.390625 72.757812 28.851562 75.65625 25.933594 C 80.617188 20.964844 87.375 17.921875 94.929688 17.917969 C 102.488281 17.921875 109.246094 20.964844 114.203125 25.933594 C 119.152344 30.914062 122.1875 37.699219 122.191406 45.285156 C 122.1875 52.871094 119.152344 59.65625 114.203125 64.636719 C 109.246094 69.601562 102.488281 72.648438 94.929688 72.652344 C 87.375 72.648438 80.617188 69.601562 75.65625 64.636719 C 72.785156 61.746094 70.5625 58.242188 69.199219 54.332031 L 50.75 54.328125 L 50.75 77.164062 C 50.75 96.625 67.523438 95.476562 67.523438 95.476562 L 67.535156 81.253906 C 75.128906 87.09375 84.625 90.566406 94.929688 90.570312 C 119.84375 90.5625 140.03125 70.296875 140.035156 45.285156 C 140.03125 20.269531 119.84375 0.00390625 94.929688 0 "/>
<path style=" stroke:none;fill-rule:nonzero;fill:rgb(100%,100%,100%);fill-opacity:1;" d="M 152.910156 98.808594 C 152.960938 98.808594 153 98.84375 153 98.898438 C 153 98.949219 152.960938 98.984375 152.910156 98.984375 C 152.863281 98.984375 152.820312 98.949219 152.820312 98.898438 C 152.820312 98.84375 152.863281 98.808594 152.910156 98.808594 M 152.910156 98.964844 C 152.945312 98.964844 152.976562 98.9375 152.976562 98.898438 C 152.976562 98.855469 152.945312 98.828125 152.910156 98.828125 C 152.875 98.828125 152.84375 98.855469 152.84375 98.898438 C 152.84375 98.9375 152.875 98.964844 152.910156 98.964844 M 152.957031 98.910156 C 152.953125 98.933594 152.933594 98.949219 152.914062 98.949219 C 152.882812 98.949219 152.863281 98.925781 152.863281 98.894531 C 152.863281 98.867188 152.882812 98.84375 152.914062 98.84375 C 152.9375 98.84375 152.953125 98.855469 152.957031 98.878906 L 152.9375 98.878906 L 152.914062 98.863281 C 152.894531 98.863281 152.886719 98.878906 152.886719 98.894531 C 152.886719 98.914062 152.898438 98.929688 152.914062 98.929688 L 152.9375 98.910156 Z M 152.957031 98.910156 "/>
<path style=" stroke:none;fill-rule:nonzero;fill:rgb(100%,100%,100%);fill-opacity:1;" d="M 149.015625 99.339844 L 149.015625 98.984375 L 149.210938 98.984375 C 149.25 98.984375 149.277344 98.996094 149.292969 99.019531 C 149.308594 99.042969 149.3125 99.070312 149.3125 99.097656 C 149.3125 99.113281 149.3125 99.140625 149.300781 99.167969 C 149.289062 99.191406 149.257812 99.214844 149.210938 99.214844 L 149.082031 99.214844 L 149.082031 99.339844 Z M 149.082031 99.152344 L 149.175781 99.152344 C 149.195312 99.152344 149.210938 99.152344 149.222656 99.148438 L 149.238281 99.132812 C 149.242188 99.128906 149.242188 99.117188 149.242188 99.101562 C 149.242188 99.074219 149.238281 99.058594 149.234375 99.054688 C 149.230469 99.050781 149.21875 99.046875 149.195312 99.046875 L 149.082031 99.046875 Z M 149.082031 99.152344 "/>
<path style=" stroke:none;fill-rule:nonzero;fill:rgb(100%,100%,100%);fill-opacity:1;" d="M 149.675781 98.984375 C 149.722656 98.984375 149.753906 98.992188 149.777344 99.011719 C 149.796875 99.03125 149.804688 99.066406 149.804688 99.105469 L 149.804688 99.222656 C 149.804688 99.265625 149.796875 99.296875 149.777344 99.316406 C 149.753906 99.335938 149.71875 99.34375 149.675781 99.34375 L 149.625 99.34375 C 149.582031 99.34375 149.546875 99.335938 149.523438 99.316406 C 149.5 99.296875 149.492188 99.265625 149.492188 99.222656 L 149.492188 99.105469 C 149.492188 99.066406 149.5 99.03125 149.523438 99.011719 C 149.546875 98.992188 149.578125 98.984375 149.625 98.984375 L 149.675781 98.984375 M 149.625 99.042969 C 149.597656 99.042969 149.582031 99.046875 149.574219 99.054688 C 149.566406 99.0625 149.5625 99.078125 149.5625 99.105469 L 149.5625 99.222656 C 149.5625 99.253906 149.570312 99.265625 149.578125 99.273438 C 149.585938 99.28125 149.601562 99.28125 149.625 99.28125 L 149.675781 99.28125 C 149.699219 99.28125 149.714844 99.28125 149.722656 99.273438 C 149.730469 99.265625 149.738281 99.253906 149.738281 99.222656 L 149.738281 99.105469 C 149.738281 99.078125 149.730469 99.0625 149.726562 99.054688 C 149.71875 99.046875 149.703125 99.042969 149.675781 99.042969 L 149.625 99.042969 "/>
<path style=" stroke:none;fill-rule:nonzero;fill:rgb(100%,100%,100%);fill-opacity:1;" d="M 150.023438 99.339844 L 150.023438 98.984375 L 150.09375 98.984375 L 150.09375 99.28125 L 150.277344 99.28125 L 150.277344 99.339844 Z M 150.023438 99.339844 "/>
<path style=" stroke:none;fill-rule:nonzero;fill:rgb(100%,100%,100%);fill-opacity:1;" d="M 150.542969 99.339844 L 150.542969 99.195312 L 150.398438 98.984375 L 150.480469 98.984375 L 150.578125 99.128906 L 150.679688 98.984375 L 150.761719 98.984375 L 150.613281 99.195312 L 150.613281 99.339844 Z M 150.542969 99.339844 "/>
<path style=" stroke:none;fill-rule:nonzero;fill:rgb(100%,100%,100%);fill-opacity:1;" d="M 151.03125 99.339844 L 151.03125 99.046875 L 150.910156 99.046875 L 150.910156 98.984375 L 151.214844 98.984375 L 151.214844 99.046875 L 151.097656 99.046875 L 151.097656 99.339844 Z M 151.03125 99.339844 "/>
<path style=" stroke:none;fill-rule:nonzero;fill:rgb(100%,100%,100%);fill-opacity:1;" d="M 151.410156 99.339844 L 151.410156 98.984375 L 151.671875 98.984375 L 151.671875 99.046875 L 151.480469 99.046875 L 151.480469 99.128906 L 151.664062 99.128906 L 151.664062 99.1875 L 151.480469 99.1875 L 151.480469 99.28125 L 151.671875 99.28125 L 151.671875 99.339844 Z M 151.410156 99.339844 "/>
<path style=" stroke:none;fill-rule:nonzero;fill:rgb(100%,100%,100%);fill-opacity:1;" d="M 152.003906 99.34375 C 151.96875 99.34375 151.9375 99.332031 151.917969 99.3125 C 151.894531 99.292969 151.882812 99.261719 151.882812 99.226562 L 151.882812 99.101562 C 151.882812 99.050781 151.902344 99.015625 151.933594 99 C 151.964844 98.984375 152.003906 98.984375 152.050781 98.984375 L 152.085938 98.984375 C 152.125 98.984375 152.152344 98.992188 152.171875 99.007812 C 152.191406 99.03125 152.195312 99.058594 152.195312 99.089844 L 152.195312 99.117188 L 152.128906 99.117188 L 152.128906 99.09375 C 152.128906 99.070312 152.125 99.058594 152.117188 99.054688 C 152.113281 99.046875 152.101562 99.042969 152.078125 99.042969 L 152.054688 99.042969 C 152.023438 99.042969 152 99.046875 151.984375 99.050781 C 151.96875 99.054688 151.964844 99.058594 151.957031 99.070312 L 151.953125 99.097656 L 151.953125 99.1875 C 151.953125 99.214844 151.957031 99.238281 151.957031 99.25 L 151.976562 99.277344 C 151.984375 99.28125 151.996094 99.28125 152.011719 99.28125 L 152.0625 99.28125 C 152.085938 99.28125 152.101562 99.28125 152.113281 99.277344 L 152.128906 99.265625 L 152.132812 99.242188 L 152.132812 99.203125 L 152.199219 99.203125 L 152.199219 99.246094 C 152.203125 99.285156 152.183594 99.316406 152.160156 99.328125 C 152.128906 99.34375 152.097656 99.34375 152.0625 99.34375 L 152.003906 99.34375 "/>
<path style=" stroke:none;fill-rule:nonzero;fill:rgb(100%,100%,100%);fill-opacity:1;" d="M 152.664062 99.339844 L 152.664062 99.191406 L 152.480469 99.191406 L 152.480469 99.339844 L 152.410156 99.339844 L 152.410156 98.984375 L 152.480469 98.984375 L 152.480469 99.128906 L 152.664062 99.128906 L 152.664062 98.984375 L 152.734375 98.984375 L 152.734375 99.339844 Z M 152.664062 99.339844 "/>
</g>
</svg>
